<?xml version="1.0" encoding="utf-8"?>
<!-- Generator: Adobe Illustrator 17.1.0, SVG Export Plug-In . SVG Version: 6.00 Build 0)  -->
<!DOCTYPE svg PUBLIC "-//W3C//DTD SVG 1.1//EN" "http://www.w3.org/Graphics/SVG/1.1/DTD/svg11.dtd">
<svg version="1.1" id="Capa_1" xmlns="http://www.w3.org/2000/svg" xmlns:xlink="http://www.w3.org/1999/xlink" x="0px" y="0px"
	 viewBox="0 0 841.9 595.3" enable-background="new 0 0 841.9 595.3" xml:space="preserve">
<g>
	<g>
		<g>
			<path fill="#010002" d="M420.9,0C256.6,0,123.3,133.3,123.3,297.6s133.3,297.6,297.6,297.6S718.6,462,718.6,297.6
				C718.6,133.2,585.3,0,420.9,0z M346.5,441.8h-74.4V181.4h74.4V441.8z M311.6,165.4c-19.3,0-34.9-15.6-34.9-34.9
				s15.6-34.9,34.9-34.9c19.3,0,34.9,15.7,34.9,34.9C346.5,149.8,330.9,165.4,311.6,165.4z M607,441.8h-74.4v-161
				c0-18.9-5.4-32.1-28.6-32.1c-38.4,0-45.8,32.1-45.8,32.1v161h-74.4V181.4h74.4v24.9c10.6-8.1,37.2-24.9,74.4-24.9
				c24.1,0,74.4,14.4,74.4,101.6L607,441.8L607,441.8z"/>
		</g>
	</g>
</g>
</svg>
